<svg xmlns="http://www.w3.org/2000/svg" version="1.1" xmlns:xlink="http://www.w3.org/1999/xlink" xmlns:svgjs="http://svgjs.com/svgjs" width="512" height="512" x="0" y="0" viewBox="0 0 480 480" style="enable-background:new 0 0 512 512" xml:space="preserve" class=""><g><circle cx="240" cy="240" r="200" fill="#b9dcff" data-original="#b9dcff" class=""></circle><path fill="#d1e7ff" d="M349.332 72.497c14.381 9.406 6.052 31.733-10.955 29.277C197.272 81.401 74.798 215.27 118.747 358.686c4.983 16.261-15.675 28.075-27.087 15.464-33.068-36.542-52.819-85.36-51.607-138.797C43.588 79.456 218.432-13.115 349.332 72.497z" data-original="#d1e7ff"></path><circle cx="240" cy="240" r="139" fill="#eef7ff" data-original="#eef7ff" class=""></circle><circle cx="240" cy="240" r="68.62" fill="#b9dcff" data-original="#b9dcff" class=""></circle><path fill="#d1e7ff" d="M229.487 116.867c-55.076 24.248-97.139 72.612-112.815 131.72-2.331 8.79-15.237 7.391-15.713-1.69-3.821-72.809 51.644-137.855 124.459-145.303 9.07-.928 12.413 11.599 4.069 15.273z" data-original="#d1e7ff"></path><path fill="#2e58ff" d="M126.047 175.33C76.593 262.278 139.734 371 240 371c72.234 0 131-58.767 131-131 0-104.372-116.574-166.435-203.008-109.453a7.997 7.997 0 0 1-11.083-2.275 8 8 0 0 1 2.276-11.082C256.182 53.238 387 122.874 387 240c0 81.056-65.944 147-147 147-112.685 0-183.26-122.182-127.86-219.58a8 8 0 0 1 10.909-2.999 7.999 7.999 0 0 1 2.998 10.909zM224 240c0 8.822 7.178 16 16 16s16-7.178 16-16-7.178-16-16-16-16 7.178-16 16zm248-8h-24.169C443.712 123.659 356.341 36.288 248 32.169V8a8 8 0 0 0-16 0v24.169C123.659 36.288 36.288 123.659 32.169 232H8a8 8 0 0 0 0 16h24.169c4.12 108.341 91.49 195.712 199.831 199.831V472a8 8 0 0 0 16 0v-32a8 8 0 0 0-8-8c-105.869 0-192-86.131-192-192S134.131 48 240 48s192 86.131 192 192c0 77.34-46.03 146.783-117.268 176.915a8 8 0 0 0-4.251 10.484 8.003 8.003 0 0 0 10.484 4.252C395.672 400.053 444.785 328.544 447.847 248H472a8 8 0 0 0 0-16zm-232-90a8 8 0 0 0-8 8v13.794c-35.875 3.739-64.467 32.331-68.206 68.206H150a8 8 0 0 0 0 16h13.794c3.739 35.875 32.331 64.467 68.206 68.206V330a8 8 0 0 0 16 0v-13.795c19.994-2.077 38.361-11.894 51.28-27.65a8.001 8.001 0 0 0-12.373-10.145c-9.863 12.029-23.739 19.666-38.907 21.669V287.25a8 8 0 0 0-16 0v12.831c-27.039-3.583-48.498-25.042-52.081-52.081h12.831a8 8 0 0 0 0-16h-12.831c3.583-27.039 25.042-48.498 52.081-52.081v12.831a8 8 0 0 0 16 0v-12.831c27.039 3.583 48.498 25.042 52.081 52.081H287.25a8 8 0 0 0 0 16H330a8 8 0 0 0 0-16h-13.794c-3.739-35.875-32.331-64.467-68.206-68.206V150a8 8 0 0 0-8-8z" data-original="#2e58ff" class=""></path></g></svg>